<?xml version="1.0" standalone="no"?>
<!DOCTYPE svg PUBLIC "-//W3C//DTD SVG 20010904//EN"
 "http://www.w3.org/TR/2001/REC-SVG-20010904/DTD/svg10.dtd">
<svg version="1.0" xmlns="http://www.w3.org/2000/svg"
 width="300.000000pt" height="300.000000pt" viewBox="0 0 300.000000 300.000000"
 preserveAspectRatio="xMidYMid meet">
<metadata>
Created by potrace 1.11, written by Peter Selinger 2001-2013
</metadata>
<g transform="translate(0.000000,300.000000) scale(0.100000,-0.100000)"
fill="#000000" stroke="none">
<path d="M704 2027 c-53 -117 -119 -259 -147 -317 -27 -58 -68 -148 -92 -200
-23 -52 -64 -140 -90 -195 -26 -55 -66 -143 -90 -195 -24 -52 -66 -144 -94
-203 -28 -60 -51 -112 -51 -116 0 -9 118 -67 123 -60 4 5 47 96 85 179 108
234 222 479 278 597 24 51 44 94 44 97 0 2 32 70 70 151 39 81 70 148 70 150
0 2 25 56 56 121 30 65 56 122 57 127 1 5 -26 24 -59 43 l-62 33 -98 -212z"/>
<path d="M1285 2157 c-21 -45 -53 -113 -70 -152 -18 -38 -54 -115 -80 -170
-26 -55 -64 -138 -85 -185 -21 -47 -59 -130 -85 -185 -26 -55 -55 -118 -65
-140 -10 -22 -50 -107 -88 -190 -38 -82 -89 -192 -112 -243 -24 -51 -41 -94
-39 -96 2 -1 30 -17 61 -33 l58 -31 24 52 c30 64 101 215 128 276 12 25 47
101 79 169 33 68 59 125 59 126 0 2 22 49 49 106 26 57 60 129 74 159 13 30
44 96 67 145 23 50 53 115 67 145 14 30 47 101 73 157 33 69 45 105 37 110 -6
3 -34 19 -63 34 l-51 28 -38 -82z"/>
<path d="M1653 1799 c-102 -25 -149 -53 -224 -129 -51 -52 -73 -84 -99 -146
-33 -76 -34 -84 -35 -209 0 -113 3 -139 24 -195 27 -74 68 -138 123 -192 140
-137 374 -165 558 -67 50 26 120 82 120 95 0 3 -19 27 -42 54 l-42 48 -45 -38
c-26 -22 -74 -48 -110 -60 -225 -75 -435 99 -434 360 1 70 28 187 50 208 7 7
13 17 13 22 0 15 73 80 112 101 50 26 131 37 198 26 91 -13 185 -80 197 -138
8 -41 6 -42 81 48 l42 51 -48 50 c-108 111 -275 153 -439 111z"/>
<path d="M2640 1806 c-77 -21 -137 -56 -182 -105 -24 -26 -48 -56 -54 -66 -8
-14 -10 2 -8 68 3 63 0 87 -9 88 -7 1 -42 2 -79 3 l-68 2 0 -36 c-4 -293 0
-923 5 -928 8 -8 145 -10 146 -2 0 3 2 127 3 275 1 149 6 281 10 295 19 59 62
134 103 180 71 80 144 107 268 101 39 -1 107 -45 129 -82 10 -16 20 -29 24
-29 4 0 22 33 40 73 l33 72 -28 23 c-15 13 -53 35 -83 49 -65 30 -178 38 -250
19z"/>
</g>
</svg>
